<svg version="1.2" xmlns="http://www.w3.org/2000/svg" viewBox="0 0 255 260" width="255" height="260"><style>.a{fill:#f9c006;stroke:#000;stroke-width:10}.b{fill:#fff}</style><path class="a" d="m144.3 45.8l1.6 0.9 1.8-0.3 75.7-14.5-14.1 77.6-0.4 1.7 0.9 1.6 36.9 69.4-76.5 10.2-1.8 0.2-1.2 1.3-52.9 57.2-33.1-71.2-0.7-1.6-1.6-0.7-69.8-33.9 56.1-54.4 1.3-1.2 0.2-1.7 10-78.2z"/><path class="b" d="m88 144h-22.3v-42h22.3v5.5h-16.7v10.5h11.2l-1.3 5.5h-9.9v14.9h16.7zm13.4 0h-5.6v-30h23.8q1.8 0 3.1 1.3 1.2 1.3 1.2 3.1v25.6h-5.6v-22.2q0-0.9-0.6-1.5-0.7-0.6-1.6-0.6h-3.4v24.3h-5.6v-22.2q0-0.9-0.7-1.5-0.7-0.6-1.6-0.6h-3.4zm32.6 15h-5.6v-45h12.5q1.9 0 3.1 1.2 1.3 1.3 1.3 3.1v21.3q0 1.8-1.3 3.1-1.2 1.3-3.1 1.3h-6.9zm0-39.4v18.7h3.5q0.8 0 1.5-0.6 0.6-0.7 0.6-1.5v-14.4q0-1-0.6-1.6-0.7-0.6-1.5-0.6zm31.8 24.4h-12.6q-1.8 0-3.1-1.3-1.2-1.3-1.2-3.1v-9.1q0-1.8 1.2-3 1.3-1.4 3.1-1.4h4.7q1 0 1.6-0.6 0.6-0.6 0.6-1.5v-2.2q0-0.9-0.6-1.5-0.6-0.7-1.6-0.7h-6.5l1.3-5.6h8.7q1.8 0 3.1 1.3 1.3 1.2 1.3 3zm-9.1-5.6h3.4v-6.5h-3.4q-0.9 0-1.6 0.6-0.6 0.6-0.6 1.5v2.2q0 0.9 0.6 1.6 0.7 0.6 1.6 0.6zm18.3 5.6h-5.6v-43.6l5.6-1.3v14.9h7.2l-1.4 5.7h-5.8zm25.9 0h-12.6q-1.8 0-3.1-1.3-1.2-1.3-1.2-3.1v-21.3q0-1.8 1.2-3.1 1.3-1.2 3.1-1.2h8.2q1.9 0 3.1 1.2 1.3 1.3 1.3 3.1v9.1q0 1.8-1.3 3.1-1.2 1.3-3.1 1.3h-6.9v4.4q0 0.9 0.6 1.5 0.7 0.6 1.6 0.6h7.8zm-11.3-22.2v4.4h3.5q0.9 0 1.5-0.6 0.7-0.6 0.7-1.5v-2.3q0-0.9-0.7-1.5-0.6-0.6-1.5-0.6h-1.2q-1 0-1.7 0.6-0.6 0.6-0.6 1.5z"/></svg>